<?xml version="1.0" standalone="no"?>
<!DOCTYPE svg PUBLIC "-//W3C//DTD SVG 20010904//EN"
 "http://www.w3.org/TR/2001/REC-SVG-20010904/DTD/svg10.dtd">
<svg version="1.0" xmlns="http://www.w3.org/2000/svg"
 width="1608.000000pt" height="2640.000000pt" viewBox="0 0 1608.000000 2640.000000"
 preserveAspectRatio="xMidYMid meet">
<metadata>
Created by potrace 1.16, written by Peter Selinger 2001-2019
</metadata>
<g transform="translate(0.000000,2640.000000) scale(0.100000,-0.100000)"
fill="#000000" stroke="none">
<path d="M3360 26392 c0 -4 -19 -16 -42 -26 -24 -10 -45 -22 -48 -27 -3 -4
-23 -10 -44 -12 -22 -3 -43 -12 -48 -21 -5 -9 -22 -16 -38 -16 -33 0 -90 -29
-90 -46 0 -7 -16 -12 -37 -12 -23 0 -39 -6 -45 -16 -5 -9 -15 -16 -22 -16 -8
0 -16 -7 -20 -15 -3 -10 -19 -15 -46 -15 -29 0 -40 -4 -40 -15 0 -11 -11 -15
-40 -15 -22 0 -40 -4 -40 -10 0 -5 -11 -12 -25 -16 -14 -3 -25 -12 -25 -20 0
-10 -12 -14 -38 -14 -26 0 -41 -6 -50 -20 -7 -11 -17 -20 -23 -20 -6 0 -17 -7
-25 -15 -9 -8 -28 -15 -44 -15 -16 0 -30 -7 -34 -15 -3 -9 -19 -15 -41 -15
-19 0 -35 -4 -35 -10 0 -5 -11 -12 -25 -16 -14 -3 -25 -12 -25 -20 0 -10 -12
-14 -40 -14 -22 0 -40 -5 -40 -10 0 -6 -11 -15 -25 -20 -14 -5 -25 -14 -25
-20 0 -5 -16 -10 -35 -10 -22 0 -43 -8 -55 -20 -11 -11 -29 -20 -39 -20 -11 0
-23 -4 -26 -10 -3 -5 -15 -10 -25 -10 -11 0 -24 -9 -30 -20 -7 -13 -21 -20
-39 -20 -16 0 -34 -7 -41 -15 -7 -8 -21 -15 -31 -15 -11 0 -19 -4 -19 -10 0
-5 -18 -13 -41 -16 -22 -4 -43 -13 -46 -20 -3 -8 -18 -14 -34 -14 -16 0 -29
-4 -29 -9 0 -5 -13 -12 -29 -16 -16 -3 -32 -13 -35 -21 -3 -9 -20 -14 -46 -14
-27 0 -39 -4 -38 -12 2 -8 -10 -14 -27 -16 -16 -2 -34 -10 -38 -18 -4 -8 -19
-14 -32 -14 -13 0 -28 -6 -32 -13 -4 -8 -33 -22 -65 -32 -37 -11 -58 -23 -61
-36 -4 -14 -14 -19 -37 -19 -17 0 -38 -7 -46 -15 -9 -8 -30 -15 -49 -15 -20 0
-35 -6 -39 -15 -3 -8 -14 -15 -25 -15 -10 0 -21 -7 -25 -15 -3 -10 -19 -15
-43 -15 -30 -1 -43 -7 -63 -30 -19 -24 -32 -30 -62 -30 -27 0 -38 -4 -38 -15
0 -11 -11 -15 -40 -15 -22 0 -40 -5 -40 -10 0 -6 -10 -15 -22 -21 -13 -5 -34
-16 -48 -24 -14 -8 -35 -15 -47 -15 -13 0 -23 -4 -23 -10 0 -5 -7 -10 -15 -10
-8 0 -19 -9 -25 -20 -7 -14 -21 -20 -44 -20 -21 0 -36 -6 -40 -15 -3 -9 -19
-15 -41 -15 -19 0 -35 -4 -35 -10 0 -5 -12 -13 -27 -16 -15 -4 -34 -13 -41
-21 -7 -7 -26 -13 -42 -13 -16 0 -30 -7 -34 -15 -3 -8 -12 -15 -20 -15 -7 0
-16 -7 -20 -15 -3 -10 -19 -15 -46 -15 -29 0 -40 -4 -40 -15 0 -10 -10 -15
-29 -15 -17 0 -32 -4 -35 -9 -9 -15 -88 -49 -128 -56 l-38 -7 0 -9874 c0
-9395 1 -9875 18 -9881 9 -4 21 -12 25 -20 4 -7 18 -13 31 -13 13 0 29 -7 36
-15 7 -8 19 -15 27 -15 7 0 16 -7 19 -15 4 -9 19 -15 35 -15 16 0 32 -6 35
-14 3 -8 16 -17 30 -20 13 -4 24 -11 24 -16 0 -6 11 -10 25 -10 14 0 28 -7 31
-15 4 -9 19 -15 35 -15 17 0 32 -6 35 -15 4 -8 12 -15 19 -15 7 0 18 -7 25
-15 7 -8 21 -15 31 -15 9 0 24 -6 31 -13 23 -22 67 -47 83 -47 8 0 24 -9 35
-20 11 -11 33 -20 50 -20 20 0 30 -5 30 -15 0 -8 7 -15 15 -15 9 0 18 -7 21
-15 4 -9 19 -15 35 -15 17 0 32 -6 35 -15 4 -8 12 -15 19 -15 7 0 18 -7 25
-15 7 -8 23 -15 37 -15 13 0 26 -7 29 -15 4 -9 19 -15 40 -15 22 0 34 -5 34
-14 0 -8 11 -17 25 -20 14 -4 25 -12 25 -20 0 -8 11 -13 26 -13 15 0 29 -5 33
-10 8 -14 82 -53 99 -53 7 0 15 -7 18 -15 4 -9 19 -15 40 -15 19 0 34 -5 34
-11 0 -5 13 -15 30 -20 16 -6 27 -15 24 -20 -3 -5 6 -9 21 -9 14 0 28 -6 31
-14 3 -8 16 -17 30 -20 13 -4 24 -11 24 -16 0 -6 9 -10 19 -10 11 0 26 -7 35
-15 8 -8 27 -15 43 -15 16 0 36 -9 46 -20 9 -11 23 -20 31 -20 8 0 16 -3 18
-7 6 -14 67 -53 81 -53 8 0 20 -7 27 -15 7 -8 21 -15 31 -15 11 0 19 -7 19
-15 0 -11 11 -15 40 -15 27 0 40 -4 40 -14 0 -7 14 -16 31 -20 17 -3 28 -10
24 -16 -3 -5 3 -10 15 -10 11 0 23 -6 26 -14 3 -8 19 -18 35 -21 16 -4 29 -11
29 -16 0 -5 9 -9 19 -9 11 0 26 -7 34 -15 8 -7 27 -17 43 -21 16 -4 35 -13 42
-21 7 -7 21 -13 31 -13 9 0 32 -13 51 -30 19 -16 45 -29 58 -30 12 0 25 -7 28
-15 4 -8 14 -15 24 -15 10 0 20 -7 24 -15 3 -9 18 -15 35 -15 16 0 32 -4 36
-9 3 -6 30 -21 60 -36 30 -14 55 -30 55 -35 0 -6 11 -10 25 -10 14 0 28 -7 31
-15 4 -8 14 -15 24 -15 10 0 23 -6 29 -14 7 -8 24 -17 39 -21 15 -4 29 -10 32
-13 6 -8 124 -67 163 -81 15 -6 27 -15 27 -21 0 -5 6 -10 14 -10 7 0 19 -7 26
-15 7 -8 21 -15 31 -15 10 0 37 -13 61 -29 90 -60 140 -55 181 19 15 28 27 54
27 59 0 6 13 25 30 43 17 18 30 40 30 49 0 14 9 27 50 76 5 7 10 23 10 35 0
13 6 32 14 43 7 11 17 30 20 43 4 12 18 34 32 49 13 14 24 36 24 49 0 13 6 27
13 31 15 10 57 87 57 106 0 8 7 20 15 27 8 7 15 19 15 26 0 8 11 31 24 52 14
20 28 50 32 65 3 16 12 31 19 34 7 2 16 16 20 31 4 15 10 29 13 32 13 10 52
88 52 104 0 9 5 16 10 16 6 0 10 7 10 15 0 9 7 18 15 21 8 4 15 18 15 33 0 15
8 31 20 39 11 7 20 19 20 28 0 17 28 71 48 92 6 7 12 21 12 30 0 10 11 34 25
54 14 21 28 51 31 68 4 16 13 30 20 30 12 0 19 26 15 52 0 5 6 8 15 8 8 0 13
4 10 9 -3 4 3 16 14 26 11 10 22 33 26 51 3 19 10 34 14 34 4 0 11 11 14 25 4
14 11 25 16 25 6 0 10 11 10 24 0 13 6 29 14 35 8 7 17 24 21 38 3 14 17 40
29 57 13 17 43 70 66 119 23 48 46 87 51 87 5 0 9 13 9 28 0 16 9 37 20 47 11
10 20 24 20 32 0 7 4 13 9 13 5 0 12 12 16 27 3 15 10 30 13 33 11 8 83 154
82 168 0 7 9 23 21 35 23 25 99 172 99 192 0 7 7 15 15 19 8 3 15 14 15 24 0
10 13 36 30 58 16 21 30 47 30 56 0 9 13 37 29 60 16 24 33 56 36 71 4 15 11
27 15 27 5 0 11 13 15 30 4 16 12 33 18 37 18 12 37 50 37 73 0 11 4 20 10 20
5 0 23 29 40 64 16 36 34 67 40 71 5 3 10 14 10 23 0 10 13 33 30 52 16 20 29
47 30 62 0 15 5 30 10 33 6 4 16 21 24 39 7 18 25 45 40 61 43 46 35 155 -12
155 -8 0 -190 175 -404 390 -215 214 -409 407 -432 429 -23 21 -53 53 -68 69
l-28 30 0 4801 0 4801 34 0 c19 0 36 5 38 11 5 14 89 14 97 0 4 -6 35 -14 70
-17 38 -4 65 -12 68 -21 3 -7 19 -13 36 -13 36 0 115 -28 135 -47 7 -7 31 -13
53 -13 22 0 47 -4 57 -9 72 -38 108 -51 147 -51 34 0 47 -5 55 -20 7 -13 21
-20 41 -20 36 0 129 -29 129 -40 0 -4 27 -11 60 -15 33 -4 60 -11 60 -15 0 -4
15 -11 34 -14 19 -4 36 -12 38 -18 2 -6 31 -13 64 -16 33 -2 67 -11 77 -20 16
-14 17 -439 17 -8647 0 -7655 2 -8634 15 -8645 12 -10 21 -8 49 14 19 14 43
26 54 26 11 0 22 7 26 15 3 8 16 15 30 15 13 0 26 7 30 15 3 8 17 15 31 15 14
0 25 5 25 10 0 6 11 15 25 20 l25 10 0 8525 c0 5850 3 8525 10 8525 6 0 13 -7
16 -15 4 -9 20 -15 43 -15 46 0 82 -10 76 -21 -5 -7 63 -31 82 -28 4 1 18 -2
31 -6 21 -7 22 -13 22 -94 0 -56 4 -91 13 -99 9 -10 13 -1685 14 -8295 2
-4555 3 -8285 3 -8289 0 -5 34 -8 75 -8 59 0 75 3 76 15 1 8 2 21 3 28 0 6 12
14 26 15 14 2 29 10 33 18 4 8 15 14 22 14 8 0 14 6 13 13 -2 7 13 14 42 17
25 3 43 9 40 15 -3 6 11 11 30 13 19 2 39 10 43 18 4 8 19 14 31 14 13 0 26 7
30 15 3 8 14 15 24 15 10 0 36 13 58 30 21 16 51 30 66 30 17 0 31 8 38 20 7
14 21 20 44 20 21 0 36 6 40 15 3 8 17 15 31 15 15 0 33 7 41 15 9 8 24 15 34
15 10 0 20 7 24 15 3 8 17 15 31 15 15 0 24 4 20 9 -3 6 10 13 29 17 20 3 34
11 33 18 -1 6 13 12 32 14 19 2 46 12 59 23 13 10 28 17 32 14 4 -3 13 2 20
10 7 8 19 15 27 15 8 0 26 9 40 20 14 11 34 20 44 20 11 0 19 5 19 10 0 6 9
10 20 10 10 0 24 9 30 20 7 14 21 20 44 20 21 0 36 6 40 15 3 8 17 15 31 15
15 0 33 7 41 15 9 8 24 15 34 15 10 0 20 7 24 15 3 9 18 15 36 15 16 0 30 4
30 10 0 5 11 12 25 16 14 3 25 12 25 20 0 10 12 14 40 14 22 0 40 5 40 10 0 6
12 15 28 22 67 27 92 39 97 47 3 5 20 13 37 17 33 7 71 27 96 51 7 7 26 13 42
13 16 0 30 7 34 15 3 9 18 15 36 15 16 0 30 4 30 10 0 5 11 12 24 16 14 3 27
12 30 20 3 8 20 14 41 14 19 0 35 4 35 10 0 5 11 12 25 16 14 3 25 12 25 20 0
9 12 14 35 14 18 0 38 6 42 13 9 15 69 47 88 47 7 0 18 7 25 15 7 8 25 15 40
15 15 0 37 9 50 20 13 11 27 20 32 20 5 0 16 7 24 15 9 8 26 15 39 15 12 0 25
7 29 15 3 8 15 15 26 15 12 0 19 4 16 9 -3 5 14 12 39 15 26 4 44 12 42 19 -1
7 13 13 35 15 20 2 42 10 48 18 7 8 18 14 25 14 7 0 18 7 25 15 7 8 21 15 32
15 11 0 37 13 58 30 21 16 50 30 64 30 15 0 29 7 32 15 4 9 19 15 38 15 19 0
38 8 49 20 10 12 29 20 47 20 16 0 30 5 30 10 0 6 7 10 15 10 8 0 23 9 32 20
10 11 26 20 36 20 10 0 15 4 12 10 -3 5 12 12 34 16 22 4 39 12 38 18 -1 6 15
12 38 14 22 2 44 10 48 18 4 8 18 14 31 14 13 0 42 14 64 30 23 17 50 30 61
30 10 0 21 7 25 15 3 8 14 15 25 15 10 0 21 7 25 15 3 8 17 15 31 15 15 0 35
5 46 10 19 10 19 31 19 870 l0 860 36 0 c20 0 50 -6 67 -14 41 -18 112 -37
162 -43 22 -3 45 -11 50 -18 6 -7 40 -14 78 -17 38 -2 71 -9 75 -15 4 -5 24
-13 45 -17 20 -4 37 -11 37 -15 0 -5 36 -12 80 -15 44 -4 80 -11 80 -16 0 -4
18 -11 40 -15 22 -4 42 -11 46 -16 3 -5 27 -9 55 -9 30 0 63 -8 86 -20 25 -13
57 -20 95 -20 32 0 58 -4 58 -10 0 -5 18 -14 40 -20 21 -6 42 -15 45 -20 3 -6
33 -10 65 -10 39 0 64 -5 74 -15 8 -8 25 -15 38 -15 13 0 33 -7 44 -15 26 -20
137 -20 154 0 7 8 20 15 30 15 10 0 20 7 24 15 3 10 19 15 46 15 24 0 48 7 56
15 9 8 26 15 39 15 18 0 23 4 19 15 -5 12 3 15 39 15 29 0 52 6 62 17 10 9 36
20 59 24 54 10 116 32 116 41 0 4 23 10 50 14 28 4 50 10 50 14 0 4 12 11 26
14 15 4 33 14 41 21 8 8 32 15 54 15 26 0 42 5 45 15 4 8 19 15 34 15 16 0 31
4 34 9 3 4 19 11 36 15 17 3 38 13 46 21 9 9 34 15 60 15 30 0 46 5 50 15 4 8
18 15 33 15 14 0 35 7 45 15 11 8 33 15 48 15 16 0 31 7 34 15 3 8 21 17 40
21 19 3 37 10 40 15 3 5 16 9 29 9 13 0 30 6 37 13 7 8 38 17 68 20 32 4 57
13 62 22 6 9 23 15 48 15 21 0 41 4 45 9 3 5 18 12 34 16 16 3 32 13 35 21 3
8 19 14 38 14 18 0 42 7 52 15 11 8 28 15 38 15 10 0 18 7 18 15 0 12 13 15
60 15 47 0 60 3 60 15 0 10 10 15 33 15 17 0 45 7 61 15 15 8 36 15 46 15 10
0 20 7 24 15 3 8 14 15 25 15 11 0 26 7 35 15 8 8 25 15 38 15 13 0 31 9 41
20 13 16 29 20 72 20 31 0 54 4 51 9 -8 12 18 21 60 21 19 0 34 4 34 9 0 5 14
13 32 16 17 4 38 14 46 21 7 8 29 14 48 14 21 0 33 4 29 10 -4 6 7 13 24 16
17 4 31 13 31 20 0 10 14 14 49 14 32 0 55 6 65 16 9 8 33 18 53 21 45 6 113
34 113 45 0 4 15 8 33 8 44 0 78 10 71 21 -3 5 2 9 11 9 8 0 23 9 32 20 13 15
30 20 64 20 32 0 49 5 53 15 4 11 20 15 56 15 27 0 50 4 50 10 0 5 11 12 24
16 14 3 27 12 30 20 4 9 21 14 55 14 34 0 51 4 55 15 3 8 15 15 26 15 11 0 20
7 20 15 0 11 12 15 48 15 35 0 52 5 65 20 11 13 29 20 52 20 34 0 63 11 97 38
9 7 34 15 56 16 22 2 48 10 57 20 9 9 22 16 29 16 8 0 19 7 26 15 8 9 30 15
57 15 30 0 45 5 49 15 4 10 20 15 44 15 39 0 99 25 113 48 5 7 29 12 56 12 34
0 51 5 55 15 3 8 14 15 24 15 11 0 25 6 31 14 6 7 31 16 56 18 24 3 51 13 60
22 9 9 27 16 41 16 13 0 42 6 64 12 l40 13 0 7352 0 7353 -30 0 c-18 0 -42 11
-63 30 -19 17 -39 30 -44 30 -5 0 -16 9 -26 20 -9 11 -24 20 -33 20 -9 0 -30
14 -46 30 -15 17 -34 30 -41 30 -7 0 -24 13 -37 30 -14 16 -35 29 -46 30 -12
0 -24 7 -28 15 -3 8 -12 15 -21 15 -9 0 -29 14 -45 30 -16 17 -35 30 -42 30
-8 0 -21 8 -30 18 -26 27 -43 39 -65 46 -12 4 -24 13 -27 21 -3 8 -15 15 -26
15 -11 0 -23 7 -26 15 -4 8 -10 15 -15 15 -13 0 -109 72 -109 82 0 4 -9 8 -20
8 -11 0 -23 7 -26 15 -4 8 -17 15 -30 15 -15 0 -24 6 -24 15 0 8 -7 15 -15 15
-9 0 -18 7 -21 15 -4 8 -12 15 -19 15 -7 0 -28 13 -46 30 -19 16 -39 30 -45
30 -6 0 -19 9 -29 20 -10 11 -24 20 -31 20 -7 0 -14 3 -16 8 -4 10 -65 52 -77
52 -5 0 -11 7 -15 15 -3 8 -12 15 -20 15 -7 0 -16 7 -20 15 -3 8 -15 15 -26
15 -11 0 -20 7 -20 15 0 8 -9 15 -20 15 -10 0 -33 14 -50 30 -17 17 -37 30
-45 30 -8 0 -18 6 -22 14 -4 7 -26 23 -47 34 -22 12 -42 25 -45 29 -11 15
-116 83 -129 83 -6 0 -12 5 -12 10 0 6 -11 15 -25 20 -14 5 -25 14 -25 20 0 5
-7 10 -15 10 -8 0 -15 5 -15 10 0 6 -11 15 -25 20 -14 5 -25 14 -25 20 0 5 -9
10 -20 10 -11 0 -23 7 -26 15 -4 8 -15 15 -25 15 -11 0 -22 7 -25 15 -4 8 -11
15 -18 15 -6 0 -24 13 -41 28 -16 15 -48 39 -70 52 -22 13 -44 30 -48 37 -4 7
-16 13 -26 13 -11 0 -21 7 -25 15 -3 8 -14 15 -23 15 -19 0 -53 32 -53 50 0 6
-8 10 -18 10 -17 0 -30 8 -79 50 -7 5 -19 10 -28 10 -9 0 -18 7 -21 15 -4 8
-12 15 -18 15 -7 0 -30 16 -52 35 -21 19 -43 35 -48 35 -4 0 -25 14 -46 30
-21 17 -43 30 -49 30 -7 0 -14 7 -17 15 -4 8 -17 15 -30 15 -15 0 -24 6 -24
15 0 8 -7 15 -15 15 -9 0 -18 7 -21 15 -4 8 -12 15 -20 15 -8 0 -14 5 -14 11
0 5 -13 15 -30 20 -16 6 -30 15 -30 20 0 5 -7 9 -15 9 -9 0 -18 7 -21 15 -4 8
-17 15 -30 15 -14 0 -27 7 -31 18 -9 22 -22 34 -57 52 -59 30 -66 35 -66 47 0
7 -9 13 -20 13 -11 0 -20 7 -20 15 0 10 -10 15 -30 15 -19 0 -30 5 -30 14 0 8
-9 18 -20 21 -11 3 -20 11 -20 16 0 5 -6 9 -13 9 -7 0 -20 8 -29 18 -25 26
-38 35 -93 61 -27 14 -60 36 -72 49 -23 25 -48 42 -90 61 -13 6 -23 15 -23 21
0 5 -7 10 -15 10 -9 0 -18 7 -21 15 -4 8 -15 15 -25 15 -11 0 -22 7 -25 15 -4
8 -13 15 -20 15 -8 0 -17 7 -20 15 -4 8 -15 15 -25 15 -11 0 -22 7 -25 15 -4
8 -13 15 -20 15 -8 0 -17 7 -20 15 -4 8 -11 15 -16 15 -5 0 -20 8 -33 18 -12
9 -33 24 -45 32 -12 8 -28 20 -34 26 -7 6 -22 15 -34 18 -12 4 -22 12 -22 17
0 5 -11 14 -25 19 -14 5 -25 14 -25 20 0 5 -9 10 -20 10 -11 0 -23 7 -26 15
-4 8 -13 15 -20 15 -8 0 -17 7 -20 15 -4 8 -13 15 -20 15 -8 0 -17 7 -20 15
-4 8 -13 15 -21 15 -8 0 -25 8 -38 18 -12 9 -33 24 -45 32 -12 8 -28 21 -36
28 -7 6 -17 12 -22 12 -8 0 -19 8 -68 49 -6 5 -20 12 -31 15 -12 4 -24 13 -27
21 -3 8 -12 15 -20 15 -8 0 -19 6 -23 13 -9 14 -37 32 -70 47 -13 5 -23 14
-23 20 0 5 -7 10 -15 10 -9 0 -18 7 -21 15 -4 8 -13 15 -20 15 -8 0 -17 7 -20
15 -4 8 -16 15 -28 15 -12 0 -29 8 -38 18 -25 26 -46 42 -56 42 -8 0 -27 14
-72 52 -8 7 -17 13 -20 13 -4 0 -14 8 -24 18 -10 9 -26 17 -37 17 -10 0 -19 7
-19 15 0 8 -6 15 -14 15 -8 0 -16 7 -20 15 -3 8 -15 15 -26 15 -11 0 -23 7
-26 15 -4 8 -13 15 -20 15 -8 0 -17 7 -20 15 -4 8 -13 15 -20 15 -8 0 -17 7
-20 15 -4 8 -15 15 -25 15 -11 0 -22 7 -25 15 -4 8 -12 15 -19 15 -10 0 -21 7
-71 49 -6 5 -20 12 -31 15 -12 4 -24 13 -27 21 -3 8 -12 15 -21 15 -8 0 -15 7
-15 15 0 8 -7 15 -16 15 -9 0 -33 14 -54 30 -21 17 -43 30 -49 30 -7 0 -14 7
-17 15 -4 8 -14 15 -23 15 -9 0 -29 14 -45 30 -16 17 -34 30 -41 30 -6 0 -26
12 -43 27 -34 28 -62 45 -100 62 -12 6 -35 23 -50 39 -15 15 -35 31 -45 35 -9
3 -17 11 -17 17 0 5 -7 10 -15 10 -9 0 -18 7 -21 15 -4 8 -17 15 -30 15 -15 0
-24 6 -24 15 0 9 -9 15 -23 15 -13 0 -34 14 -51 35 -16 19 -34 35 -38 35 -5 0
-16 6 -23 13 -34 30 -45 37 -56 37 -6 0 -22 9 -36 20 -14 11 -32 20 -39 20 -8
0 -14 7 -14 15 0 8 -5 15 -10 15 -6 0 -24 14 -40 30 -16 17 -33 30 -38 30 -5
0 -15 6 -22 14 -6 8 -21 16 -33 18 -12 2 -21 9 -20 16 2 7 -9 12 -27 12 -20 0
-30 5 -30 15 0 8 -6 15 -13 15 -7 0 -20 8 -29 18 -37 38 -55 52 -66 52 -7 0
-12 5 -12 10 0 6 -7 10 -15 10 -8 0 -24 9 -35 20 -11 11 -26 20 -34 20 -8 0
-18 5 -21 11 -4 5 -18 14 -32 20 -13 5 -21 13 -18 19 3 5 -3 10 -14 10 -12 0
-21 6 -21 14 0 7 -8 17 -17 20 -33 12 -73 37 -73 46 0 5 -13 11 -30 15 -16 4
-30 11 -30 16 0 5 -7 9 -15 9 -9 0 -18 7 -21 15 -4 8 -11 15 -18 15 -6 0 -19
9 -29 20 -9 11 -24 20 -32 20 -8 0 -15 4 -15 9 0 5 -9 13 -20 16 -11 3 -20 13
-20 21 0 8 -10 14 -25 14 -16 0 -25 6 -25 15 0 9 -9 15 -23 15 -13 0 -33 13
-47 30 -14 16 -30 29 -37 30 -6 0 -27 14 -45 30 -18 17 -41 30 -51 30 -9 0
-20 6 -23 14 -3 8 -17 17 -31 21 -14 3 -23 9 -19 12 6 6 -10 17 -64 45 -13 7
-37 25 -52 41 -16 15 -35 27 -44 27 -8 0 -17 7 -20 15 -4 8 -13 15 -20 15 -8
0 -17 7 -20 15 -4 8 -15 15 -25 15 -11 0 -22 7 -25 15 -4 8 -15 15 -25 15 -10
0 -19 6 -19 14 0 7 -8 17 -17 20 -35 13 -73 37 -73 47 0 5 -6 9 -13 9 -12 0
-26 9 -74 50 -7 5 -18 10 -25 10 -7 0 -30 15 -50 33 -61 53 -126 97 -143 97
-8 0 -15 7 -15 15 0 9 -9 15 -25 15 -14 0 -25 5 -25 10 0 13 -37 50 -50 50
-12 0 -73 41 -78 53 -2 4 -10 7 -18 7 -8 0 -23 8 -34 18 -11 9 -29 25 -40 35
-11 9 -24 17 -30 17 -5 0 -10 4 -10 10 0 5 -11 12 -25 16 -14 3 -25 10 -25 15
0 5 -11 14 -25 19 -14 5 -25 14 -25 20 0 5 -9 10 -19 10 -10 0 -21 7 -25 15
-3 8 -14 15 -23 15 -10 0 -26 8 -35 18 -24 25 -40 37 -61 45 -10 4 -15 11 -12
17 4 6 -5 10 -20 10 -14 0 -28 7 -31 15 -4 8 -13 15 -20 15 -8 0 -17 7 -20 15
-4 8 -12 15 -20 15 -8 0 -22 9 -31 20 -10 11 -23 20 -30 20 -7 0 -13 5 -13 10
0 6 -7 10 -15 10 -8 0 -20 9 -27 20 -7 11 -21 20 -31 20 -10 0 -20 7 -23 15
-4 8 -12 15 -20 15 -8 0 -14 7 -14 15 0 10 -10 15 -30 15 -18 0 -30 5 -30 13
0 16 -36 47 -55 47 -9 0 -18 7 -21 15 -4 8 -13 15 -20 15 -21 0 -74 41 -74 58
0 8 -7 11 -17 8 -12 -4 -30 6 -52 29 -19 19 -40 35 -47 35 -8 0 -14 7 -14 15
0 9 -9 15 -25 15 -14 0 -28 7 -31 15 -4 8 -13 15 -20 15 -8 0 -17 7 -20 15 -4
8 -11 15 -18 15 -6 0 -19 9 -29 20 -9 11 -24 20 -32 20 -8 0 -15 5 -15 10 0 6
-9 10 -20 10 -11 0 -23 6 -26 14 -3 8 -21 17 -40 20 -19 4 -34 11 -34 16 0 5
-10 12 -22 16 -13 4 -29 15 -36 25 -11 16 -27 19 -102 19 l-88 0 -7 -39 c-4
-22 -13 -45 -21 -52 -8 -6 -14 -24 -14 -40 0 -28 -34 -104 -51 -115 -5 -3 -9
-22 -9 -44 0 -24 -5 -40 -15 -44 -9 -3 -15 -18 -15 -35 0 -16 -6 -36 -13 -43
-8 -7 -17 -26 -21 -41 -3 -15 -11 -27 -16 -27 -5 0 -12 -20 -16 -45 -3 -25
-10 -45 -14 -45 -4 0 -11 -11 -14 -25 -4 -14 -11 -25 -16 -25 -6 0 -10 -17
-10 -39 0 -22 -6 -44 -15 -51 -8 -7 -17 -28 -21 -49 -4 -20 -12 -43 -18 -51
-22 -30 -46 -78 -46 -95 0 -22 -42 -115 -52 -115 -5 0 -8 -13 -8 -29 0 -16 -7
-36 -15 -45 -8 -8 -15 -32 -15 -53 0 -24 -7 -45 -17 -55 -34 -31 -43 -47 -43
-72 0 -26 -38 -108 -52 -114 -4 -2 -8 -19 -8 -37 0 -19 -6 -40 -14 -47 -7 -8
-17 -33 -21 -55 -3 -23 -13 -44 -21 -47 -8 -3 -14 -13 -14 -23 0 -10 -7 -27
-15 -37 -8 -11 -15 -30 -15 -42 0 -12 -7 -27 -15 -34 -8 -7 -15 -21 -15 -31 0
-9 -7 -24 -15 -33 -8 -8 -15 -26 -15 -41 0 -15 -7 -33 -15 -41 -9 -9 -15 -34
-15 -59 0 -34 -5 -47 -20 -55 -11 -6 -20 -17 -20 -25 0 -8 -4 -15 -10 -15 -5
0 -10 -17 -10 -39 0 -21 -6 -44 -14 -50 -8 -7 -18 -26 -21 -42 -4 -16 -11 -29
-16 -29 -5 0 -9 -14 -9 -32 0 -17 -7 -39 -16 -49 -9 -10 -18 -35 -21 -56 -3
-21 -11 -42 -19 -46 -8 -4 -14 -14 -14 -21 0 -8 -7 -19 -16 -26 -8 -7 -14 -23
-13 -34 3 -27 -10 -66 -22 -66 -5 0 -9 -13 -9 -28 0 -16 -7 -37 -15 -48 -8
-10 -15 -29 -15 -41 0 -12 -7 -28 -15 -37 -8 -8 -15 -32 -15 -55 0 -27 -4 -41
-13 -41 -15 0 -47 -66 -47 -97 0 -11 -7 -26 -15 -33 -8 -7 -15 -22 -15 -34 0
-11 -7 -34 -15 -50 -8 -15 -15 -37 -15 -47 0 -10 -9 -26 -19 -36 -11 -11 -21
-35 -23 -58 -2 -25 -8 -39 -15 -38 -7 2 -13 -6 -13 -17 0 -11 -7 -23 -15 -26
-18 -7 -20 -30 -2 -38 10 -5 10 -7 0 -12 -7 -3 -13 -12 -13 -20 0 -8 -7 -17
-15 -20 -10 -4 -15 -20 -15 -49 0 -29 -5 -45 -15 -49 -11 -4 -15 -23 -15 -78
0 -70 2 -75 31 -101 17 -15 32 -27 34 -27 14 0 163 -110 193 -142 9 -10 24
-18 34 -18 10 0 18 -7 18 -15 0 -8 7 -15 15 -15 9 0 18 -7 21 -15 4 -8 15 -15
25 -15 11 0 22 -7 25 -15 4 -8 12 -15 19 -15 7 0 15 -7 19 -15 3 -8 11 -15 18
-15 8 0 21 -8 29 -17 9 -10 26 -25 39 -33 12 -8 28 -21 36 -27 7 -7 17 -13 22
-13 5 0 17 -9 27 -20 10 -11 22 -20 27 -20 5 0 21 -13 36 -29 15 -16 37 -32
50 -36 12 -3 22 -11 22 -16 0 -5 7 -9 15 -9 8 0 15 -5 15 -10 0 -6 11 -15 25
-20 14 -5 25 -14 25 -20 0 -5 6 -10 13 -10 7 0 24 -13 37 -28 14 -16 38 -32
53 -36 15 -3 27 -10 27 -15 0 -4 26 -25 57 -47 32 -21 68 -51 81 -66 13 -16
30 -28 38 -28 8 0 17 -7 20 -15 4 -8 11 -15 16 -15 6 0 27 -13 48 -30 21 -16
42 -30 47 -30 5 0 16 -8 25 -17 33 -35 55 -53 62 -53 7 0 9 -2 66 -50 19 -17
45 -33 58 -36 12 -3 22 -12 22 -20 0 -8 7 -14 15 -14 8 0 15 -7 15 -15 0 -8 8
-15 18 -15 9 0 31 -14 49 -30 18 -17 37 -30 43 -30 6 0 13 -6 16 -14 3 -8 16
-17 30 -20 13 -4 24 -13 24 -21 0 -8 7 -15 15 -15 8 0 15 -4 15 -10 0 -5 6
-10 13 -10 7 0 20 -8 29 -17 25 -28 61 -53 75 -53 7 0 13 -7 13 -15 0 -8 8
-15 18 -15 11 0 40 -20 66 -45 27 -25 52 -45 57 -45 5 0 12 -7 15 -15 4 -8 10
-15 15 -15 9 0 59 -32 85 -55 6 -5 22 -17 34 -25 13 -8 30 -23 39 -32 8 -10
19 -18 24 -18 9 0 30 -17 55 -42 9 -10 23 -18 32 -18 9 0 23 -8 32 -17 19 -21
26 -26 96 -78 28 -22 52 -42 52 -46 0 -4 11 -10 25 -13 14 -4 34 -14 44 -24
37 -35 147 -116 219 -161 29 -19 51 -35 50 -36 -6 -6 -91 13 -97 22 -8 12 -88
40 -134 46 -20 3 -44 13 -53 21 -8 9 -30 16 -47 16 -18 0 -59 14 -92 30 -38
19 -75 30 -103 30 -29 0 -45 5 -48 15 -4 9 -19 15 -39 15 -19 0 -40 7 -49 15
-8 8 -28 15 -45 15 -16 0 -34 6 -38 13 -4 8 -30 17 -58 21 -27 3 -54 11 -59
16 -6 6 -18 10 -28 10 -10 0 -21 7 -24 15 -5 11 -22 15 -65 15 -42 0 -61 4
-65 14 -3 8 -28 17 -60 21 -30 3 -54 11 -54 16 0 5 -8 9 -18 9 -11 0 -29 9
-42 20 -15 13 -37 20 -67 20 -23 0 -43 5 -43 10 0 6 -6 10 -13 10 -7 0 -29 9
-50 20 -23 12 -56 20 -87 20 -38 0 -50 4 -50 15 0 11 -12 15 -49 15 -31 0 -53
5 -61 15 -7 8 -18 15 -25 15 -7 0 -18 6 -24 14 -6 8 -36 17 -66 21 -30 3 -57
11 -60 16 -4 5 -15 9 -26 9 -11 0 -22 7 -25 15 -5 11 -22 15 -65 15 -44 0 -60
4 -67 17 -15 25 -169 26 -183 0 -6 -9 -21 -17 -34 -17 -16 0 -34 -14 -57 -42
-18 -24 -38 -49 -45 -56 -7 -7 -13 -22 -13 -33 0 -10 -4 -19 -10 -19 -5 0 -10
-6 -10 -13 0 -7 -9 -20 -20 -30 -11 -9 -20 -23 -20 -30 0 -7 -9 -20 -20 -30
-11 -9 -20 -24 -20 -32 0 -8 -10 -26 -21 -39 -22 -26 -41 -56 -58 -93 -5 -11
-15 -24 -20 -28 -6 -3 -11 -15 -11 -26 0 -10 -6 -19 -14 -19 -8 0 -18 -10 -22
-22 -4 -13 -16 -34 -26 -48 -11 -14 -26 -40 -33 -57 -8 -18 -18 -33 -22 -33
-5 0 -17 -20 -28 -45 -11 -25 -26 -45 -32 -45 -7 0 -13 -8 -13 -17 0 -10 -13
-32 -28 -48 -16 -17 -32 -43 -36 -58 -3 -15 -11 -27 -16 -27 -6 0 -10 -7 -10
-15 0 -9 -7 -18 -15 -21 -8 -4 -15 -15 -15 -26 0 -11 -12 -32 -28 -47 -15 -15
-40 -53 -55 -84 -15 -31 -32 -57 -37 -57 -6 0 -10 -6 -10 -14 0 -8 -7 -16 -15
-20 -8 -3 -15 -14 -15 -25 0 -11 -6 -24 -13 -28 -7 -4 -21 -25 -32 -47 -11
-21 -26 -40 -32 -43 -7 -3 -13 -13 -13 -23 0 -10 -21 -46 -46 -80 -25 -34 -54
-79 -65 -100 -11 -21 -27 -44 -35 -51 -8 -6 -14 -18 -14 -26 0 -14 -8 -26 -42
-64 -10 -10 -18 -28 -18 -39 0 -11 -7 -23 -15 -26 -8 -4 -15 -13 -15 -20 0 -8
-6 -17 -14 -20 -8 -3 -17 -13 -20 -22 -3 -9 -10 -25 -16 -34 -23 -41 -31 -54
-40 -75 -5 -13 -14 -23 -20 -23 -6 0 -9 -4 -6 -9 6 -9 -40 -72 -56 -79 -5 -2
-8 -12 -8 -22 0 -10 -7 -20 -15 -24 -8 -3 -15 -14 -15 -25 0 -11 -13 -36 -30
-54 -16 -19 -30 -41 -30 -49 0 -8 -9 -23 -20 -33 -11 -10 -20 -22 -20 -27 0
-5 -12 -25 -27 -44 -14 -20 -28 -47 -29 -61 -5 -44 -24 -52 -24 -11 0 20 4 40
10 43 7 4 10 1232 10 3651 l0 3644 -340 0 c-187 0 -340 -3 -340 -8z m6995
-7668 c33 -31 77 -67 98 -81 20 -14 37 -30 37 -34 0 -5 5 -9 11 -9 6 0 34 -22
62 -50 28 -27 57 -50 64 -50 7 0 13 -4 13 -8 0 -5 20 -23 44 -40 46 -33 107
-86 157 -134 15 -16 32 -28 38 -28 5 0 14 -6 18 -13 4 -7 19 -20 33 -29 14 -8
37 -26 51 -39 14 -13 41 -36 60 -51 50 -41 107 -89 145 -123 52 -47 63 -55 72
-55 4 0 23 -16 42 -35 19 -19 41 -35 48 -35 6 0 12 -7 12 -15 0 -8 7 -15 15
-15 8 0 15 -4 15 -8 0 -10 96 -82 110 -82 5 0 10 -8 10 -17 0 -10 0 -2362 0
-5228 l0 -5210 -43 3 c-23 2 -49 10 -57 17 -18 15 -118 45 -152 45 -13 0 -40
9 -61 20 -20 11 -55 20 -76 20 -22 0 -41 3 -43 8 -6 13 -72 40 -111 46 -20 2
-44 12 -53 20 -8 9 -24 16 -35 16 -11 0 -27 4 -37 9 -62 34 -234 111 -247 111
-9 0 -18 7 -21 15 -4 8 -14 15 -23 15 -10 0 -35 13 -57 30 -21 16 -43 30 -49
30 -12 0 -82 65 -112 104 -13 16 -23 41 -23 55 0 15 -4 31 -10 37 -10 10 -20
10844 -10 10844 3 -1 32 -26 65 -56z m1495 -1229 c0 -8 7 -15 15 -15 9 0 18
-7 21 -15 4 -8 10 -15 15 -15 5 0 32 -23 61 -50 81 -77 84 -80 95 -80 6 0 13
-7 17 -15 3 -8 11 -15 18 -15 18 0 36 -43 27 -66 -4 -10 -8 -2254 -8 -4986 -1
-3754 2 -4973 11 -4993 15 -34 6 -40 -32 -21 -18 8 -73 18 -123 22 -51 3 -101
7 -112 9 -20 2 -20 10 -23 5128 -1 3416 1 5127 8 5127 5 0 10 -7 10 -15z"/>
</g>
</svg>
